<svg width="167" height="72" viewBox="0 0 167 72" fill="none" xmlns="http://www.w3.org/2000/svg">
<path d="M8.4 24.25H24.05V18H8.4V24.25ZM8.4 38.05H23.55V32.1H8.4V38.05ZM3.8 18V53H10.7V18H3.8ZM35.3801 30H29.0301V53H35.3801V30ZM42.1301 36.75L45.0801 31.25C44.6134 30.65 43.9967 30.2 43.2301 29.9C42.4967 29.6 41.7134 29.45 40.8801 29.45C39.6801 29.45 38.5134 29.8833 37.3801 30.75C36.2467 31.5833 35.3301 32.7167 34.6301 34.15C33.9301 35.55 33.5801 37.1667 33.5801 39L35.3801 40.8C35.3801 39.7 35.5134 38.7667 35.7801 38C36.0801 37.2 36.5134 36.5833 37.0801 36.15C37.6467 35.7167 38.3301 35.5 39.1301 35.5C39.7967 35.5 40.3467 35.6167 40.7801 35.85C41.2467 36.05 41.6967 36.35 42.1301 36.75ZM58.6301 53.5C61.3967 53.5 63.7634 52.9667 65.7301 51.9C67.7301 50.8 69.3301 49.1667 70.5301 47L64.8801 45.25C64.2134 46.35 63.3634 47.1833 62.3301 47.75C61.3301 48.2833 60.1134 48.55 58.6801 48.55C57.4134 48.55 56.3301 48.2667 55.4301 47.7C54.5301 47.1333 53.8467 46.3167 53.3801 45.25C52.9467 44.1833 52.7301 42.8833 52.7301 41.35C52.7634 39.75 52.9967 38.4167 53.4301 37.35C53.8967 36.25 54.5467 35.4333 55.3801 34.9C56.2467 34.3333 57.3134 34.05 58.5801 34.05C59.6134 34.05 60.5134 34.2833 61.2801 34.75C62.0467 35.2167 62.6301 35.85 63.0301 36.65C63.4634 37.45 63.6801 38.4167 63.6801 39.55C63.6801 39.7833 63.6134 40.0833 63.4801 40.45C63.3801 40.7833 63.2634 41.05 63.1301 41.25L64.8801 38.95H49.9301V42.95H70.5301C70.5634 42.75 70.5801 42.4833 70.5801 42.15C70.6134 41.8167 70.6301 41.5 70.6301 41.2C70.6301 38.7333 70.1634 36.6333 69.2301 34.9C68.2967 33.1333 66.9301 31.8 65.1301 30.9C63.3634 29.9667 61.2134 29.5 58.6801 29.5C56.1467 29.5 53.9467 30 52.0801 31C50.2134 31.9667 48.7634 33.35 47.7301 35.15C46.7301 36.9167 46.2301 39.0333 46.2301 41.5C46.2301 43.9333 46.7301 46.05 47.7301 47.85C48.7634 49.6167 50.2134 51 52.0801 52C53.9467 53 56.1301 53.5 58.6301 53.5ZM76.6645 45.05L73.5145 49.1C74.3811 49.9333 75.3478 50.7167 76.4145 51.45C77.5145 52.15 78.7311 52.7167 80.0645 53.15C81.4311 53.5833 82.9311 53.8 84.5645 53.8C87.1978 53.8 89.2645 53.1667 90.7645 51.9C92.2645 50.6 93.0145 48.8 93.0145 46.5C93.0145 45.1 92.6978 43.9667 92.0645 43.1C91.4311 42.2333 90.5811 41.5167 89.5145 40.95C88.4811 40.35 87.3478 39.8167 86.1145 39.35C85.1145 38.9167 84.2145 38.55 83.4145 38.25C82.6478 37.95 82.0478 37.6167 81.6145 37.25C81.2145 36.85 81.0145 36.4 81.0145 35.9C81.0145 35.3333 81.2145 34.9167 81.6145 34.65C82.0478 34.35 82.6311 34.2 83.3645 34.2C84.4645 34.2 85.5811 34.4833 86.7145 35.05C87.8811 35.6167 88.8811 36.35 89.7145 37.25L92.5645 33.25C91.8311 32.5167 90.9811 31.8833 90.0145 31.35C89.0478 30.7833 87.9978 30.3333 86.8645 30C85.7311 29.6667 84.5145 29.5 83.2145 29.5C81.6811 29.5 80.2811 29.75 79.0145 30.25C77.7811 30.7167 76.7978 31.4333 76.0645 32.4C75.3311 33.3333 74.9645 34.4833 74.9645 35.85C74.9645 37.2833 75.2811 38.4667 75.9145 39.4C76.5811 40.3 77.4145 41.0333 78.4145 41.6C79.4145 42.1333 80.4478 42.6 81.5145 43C82.6478 43.3667 83.5811 43.7167 84.3145 44.05C85.0478 44.3833 85.5978 44.7667 85.9645 45.2C86.3645 45.6 86.5645 46.1 86.5645 46.7C86.5645 47.3667 86.3311 47.9 85.8645 48.3C85.3978 48.6667 84.7311 48.85 83.8645 48.85C83.1978 48.85 82.4811 48.7167 81.7145 48.45C80.9811 48.1833 80.1978 47.7833 79.3645 47.25C78.5311 46.6833 77.6311 45.95 76.6645 45.05ZM103.987 14H97.4871V53H103.987V14ZM112.337 39V53H118.837V38.05C118.837 36.15 118.554 34.55 117.987 33.25C117.42 31.9167 116.554 30.9167 115.387 30.25C114.22 29.5833 112.737 29.25 110.937 29.25C109.137 29.25 107.62 29.6833 106.387 30.55C105.154 31.4167 104.22 32.5833 103.587 34.05C102.987 35.5167 102.687 37.1667 102.687 39H103.987C103.987 38.0333 104.17 37.2 104.537 36.5C104.904 35.8 105.437 35.2667 106.137 34.9C106.837 34.5 107.637 34.3 108.537 34.3C109.904 34.3 110.87 34.7 111.437 35.5C112.037 36.3 112.337 37.4667 112.337 39Z" fill="#7DD36F"/>
<path d="M131.683 50.0378C123.51 41.0785 122.027 34.136 124.273 32.4306C126.518 30.7252 132.08 30.0796 140.253 39.0378C139.197 48.3475 138.236 43.5378 140.253 47.5377C136.036 50.7392 142.269 46.4239 131.683 50.0378Z" fill="#FF8A35"/>
<path d="M140.873 50.2782C141.77 49.39 143.443 47.7471 146.513 45.9852C145.995 45.2252 145.433 44.4959 144.827 43.8013C141.491 46.3658 139.933 51.2102 140.873 50.2782ZM133.362 43.5028C134.323 42.5516 136.176 40.7341 139.686 38.8311C138.91 38.2084 138.113 37.6113 137.296 37.0406C133.974 39.6086 132.425 44.4311 133.362 43.5028ZM133.726 51.9617C135.572 48.6961 137.327 46.9519 138.259 46.0272C139.202 45.0952 134.264 46.6743 131.685 49.9832C132.354 50.6536 133.034 51.3132 133.726 51.9617ZM125.035 40.9181C125.508 41.753 126.005 42.5744 126.526 43.3811C128.278 40.3961 129.919 38.7551 130.809 37.8734C131.661 37.0309 127.709 38.2382 125.035 40.9181Z" fill="#D67503"/>
<g clip-path="url(#clip0_1_85)">
<path d="M154.191 32.3631C157.339 29.0727 156.567 21.8196 156.015 22.7985C156.567 21.8196 150.051 24.2094 148.78 28.7522C148.394 27.1472 145.359 21.0786 144.474 27.2264C143.588 33.3744 144.527 34.0006 144.913 35.6056C145.299 37.2107 148.281 36.505 148.281 36.505C148.281 36.505 148.888 39.6055 150.379 39.2526C151.87 38.8999 152.644 39.4163 157.282 35.7743C161.922 32.131 155.682 32.0104 154.191 32.3631Z" fill="#77B255"/>
<path d="M149.049 51.1683C143.099 61.7115 131.374 71.043 129.028 69.4771C126.681 67.9112 129.022 52.3168 134.971 41.7739C140.92 31.2307 145.062 30.3144 149.468 33.2537C153.874 36.1944 154.998 40.6252 149.049 51.1683Z" fill="#FF8A35"/>
<path d="M146.006 41.0503C144.716 40.1894 142.325 38.5799 139.393 35.2896C138.66 36.1281 137.977 37.014 137.346 37.9428C141.288 41.3448 147.359 41.9525 146.006 41.0503ZM140.318 52.0798C138.937 51.1578 136.291 49.3735 133.067 45.5821C132.57 46.7011 132.107 47.8387 131.682 48.9932C135.623 52.3761 141.667 52.9796 140.318 52.0798ZM150.028 49.3615C145.705 47.9754 143.173 46.2925 141.83 45.3974C140.476 44.4917 143.737 50.1227 148.323 52.3957C148.907 51.3949 149.476 50.3834 150.028 49.3615ZM139.729 62.9839C140.561 62.18 141.37 61.3497 142.156 60.494C138.185 59.1479 135.806 57.5777 134.525 56.723C133.301 55.9053 135.846 60.4259 139.729 62.9839Z" fill="#D67503"/>
</g>
<defs>
<clipPath id="clip0_1_85">
<rect width="39.0012" height="42.0288" fill="white" transform="matrix(0.973136 -0.230229 0.23382 0.97228 118.969 29.9792)"/>
</clipPath>
</defs>
</svg>
