<svg width="40" height="34" viewBox="0 0 40 34" fill="none" xmlns="http://www.w3.org/2000/svg">
<path d="M26.3682 0.1698L32.5226 10.8303H39.0833V14.6636H36.8466L35.3957 32.0727C35.3558 32.5517 35.1374 32.9982 34.7838 33.3237C34.4302 33.6492 33.9673 33.83 33.4867 33.8303H6.34667C5.86606 33.83 5.40308 33.6492 5.04951 33.3237C4.69593 32.9982 4.47756 32.5517 4.43767 32.0727L2.98483 14.6636H0.75V10.8303H7.30883L13.4652 0.1698L16.7848 2.08647L11.7363 10.8303H28.0951L23.0485 2.08647L26.3682 0.1698ZM32.9998 14.6636H6.83158L8.11 29.997H31.7214L32.9998 14.6636ZM21.8333 18.497V26.1636H18V18.497H21.8333ZM14.1667 18.497V26.1636H10.3333V18.497H14.1667ZM29.5 18.497V26.1636H25.6667V18.497H29.5Z" fill="#7DD36F"/>
</svg>
